# xmcd
#
# Track frame offsets:
#	150
#	37319
#	64156
#	84640
#	116210
#	133932
#	164947
#	185302
#	206487
#	229747
#	254115
#
# Disc length: 3787 seconds
#
# Revision: 0
# Processed by: cddbd v1.5.2PL0 Copyright (c) Steve Scherf et al.
# Submitted via: dBpowerAMP V4.0
#
DISCID=b10ec90b
DTITLE=123 - 123
DYEAR=1900
DGENRE=Acid
TTITLE0=1
TTITLE1=2
TTITLE2=3
TTITLE3=4
TTITLE4=5
TTITLE5=6
TTITLE6=7
TTITLE7=8
TTITLE8=9
TTITLE9=10
TTITLE10=11
EXTD=
EXTT0=
EXTT1=
EXTT2=
EXTT3=
EXTT4=
EXTT5=
EXTT6=
EXTT7=
EXTT8=
EXTT9=
EXTT10=
PLAYORDER=
